<svg xmlns="http://www.w3.org/2000/svg" viewBox="0 0 226.77 226.77"><defs><style>.cls-1{fill:#fff;}.cls-2{fill:none;stroke:#9d9d9c;stroke-miterlimit:10;stroke-width:6px;}.cls-3{fill:#575756;}.cls-4{fill:#f39200;}</style></defs><title>logo_modelreg_small</title><g id="qr_punkte" data-name="qr punkte"><path class="cls-1" d="M.08,226.77H37.87V189H.08ZM188.9,37.85h37.87V0H188.9Zm-151.07,0V0H0V37.89Z"/><path d="M.08,226.77V189H37.87v37.79Zm32.54-32.3h-27v26.82h27Z"/><path d="M188.9,37.85V0h37.87V37.85Zm5.48-5.52h26.87V5.44H194.37Z"/><path d="M37.83,37.89H0V0H37.83ZM5.5,5.4v27H32.33V5.4Z"/><path class="cls-1" d="M32.62,194.47v26.82h-27V194.47ZM27,216V200H11.12V216Z"/><path class="cls-1" d="M194.37,32.33V5.44h26.87V32.33ZM216,11H199.9V26.84H216Z"/><path class="cls-1" d="M5.5,5.4H32.33v27H5.5ZM27,10.95H10.95V26.82H27Z"/><path d="M27,216H11.12V200H27Z"/><path d="M216,11V26.84H199.9V11Z"/><path d="M27,10.95V26.82H10.95V10.95Z"/></g><g id="v1"><path class="cls-2" d="M17.57,147.25a101.18,101.18,0,1,1,185.26,12.5"/><path class="cls-2" d="M87.94,193.53a84,84,0,1,1,108.94-80.2"/><path class="cls-2" d="M74.87,168.71a67.17,67.17,0,1,1,69.36,4.07"/><path class="cls-3" d="M87.06,106.58c-5.23-1.4-9.82-2.48-14.32-3.86-5.45-1.68-9-5.32-10.16-11q-4.82-24-9.56-48.05C51.26,34.77,49.64,25.88,47.7,17c-.58-2.63.12-4.08,2.34-5.27s4.15-2.53,6.27-3.72c2.78-1.56,3.51-1.42,5.2,1.42,3.93,6.63,7.76,13.31,11.61,20q16,27.73,32,55.46c.47.81,1,1.56,1.68,2.52,9.46-1.57,18,.25,25,7.21s8.63,15.6,7.26,25.31c4,1.06,7.53,2.22,11.18,3,7.93,1.61,12.55,6.22,14.1,14.2,4.67,24.12,9.32,48.24,14.18,72.32.6,3-.07,4.59-2.62,5.87-2,1-4,2.32-6,3.41-2.88,1.55-3.53,1.44-5.2-1.4-3.85-6.51-7.61-13.09-11.39-19.64q-15.82-27.38-31.64-54.76c-.67-1.16-1.42-2.28-2.29-3.65-9.56,1.35-18.19-.36-25.33-7.51S85.53,116.19,87.06,106.58Zm33.27,6.48c-.06-4.44-3-7.35-7.36-7.27a8.06,8.06,0,0,0-7.48,7.54c0,3.81,3.95,7.6,7.93,7.56S120.39,117.54,120.33,113.06Z"/><path class="cls-4" d="M206.18,113.33h16.38c-1.44,1.65-2.12,2.59-2.95,3.37q-8.59,8-17.23,16c-2.92,2.69-3.58,2.71-6.43.09q-9.07-8.35-18.07-16.78a26.82,26.82,0,0,1-1.94-2.42h16.66C192,87.09,181.73,66,161.19,50.27s-43.69-19.61-69-13.6L85.54,25.18C139,6.24,205.22,45.75,206.18,113.33Z"/><path class="cls-1" d="M120.33,113.06c.06,4.48-2.86,7.78-6.91,7.83s-8-3.75-7.93-7.56a8.06,8.06,0,0,1,7.48-7.54C117.32,105.7,120.28,108.62,120.33,113.06Z"/><circle class="cls-4" cx="42.07" cy="140.15" r="19.27"/></g></svg>